<svg xmlns="http://www.w3.org/2000/svg" viewBox="0 0 24 24" fill="none">
  <path d="M12 3.5c1.9 2.2 2.9 4.6 2.9 7.1 0 3-1.3 5.4-2.9 6.9-1.6-1.5-2.9-3.9-2.9-6.9 0-2.5 1-4.9 2.9-7.1Z" fill="#a78bfa" opacity="0.95"/>
  <path d="M4.5 8.5c2.8.5 5 1.8 6.4 3.8 1.5 2.1 1.9 4.5 1.5 6.6-2.1-.3-4.4-1.5-5.9-3.6-1.4-2-1.9-4.4-2-6.8Z" fill="#a78bfa" opacity="0.55"/>
  <path d="M19.5 8.5c-.1 2.4-.6 4.8-2 6.8-1.5 2.1-3.8 3.3-5.9 3.6-.4-2.1 0-4.5 1.5-6.6 1.4-2 3.6-3.3 6.4-3.8Z" fill="#a78bfa" opacity="0.55"/>
</svg>
